<svg width="419" height="179" viewBox="0 0 419 179" fill="none" xmlns="http://www.w3.org/2000/svg">
<path fill-rule="evenodd" clip-rule="evenodd" d="M89.6104 145.986L92.1439 147.565C93.9564 148.691 95.8868 149.682 97.897 150.312C99.8932 150.939 101.98 151.219 104.114 150.935C111.216 150.004 117.95 141.884 122.982 135.819C123.966 134.631 124.888 133.519 125.758 132.528C126.195 132.033 126.576 131.472 126.77 130.866C126.961 130.28 126.978 129.643 126.701 128.961C126.427 128.282 125.976 127.894 125.45 127.672C124.892 127.433 124.226 127.367 123.582 127.333C112.661 126.737 102.16 123.761 91.6552 120.789L88.5256 119.906C79.4004 117.332 70.736 114.89 61.1879 116.726L59.365 117.079L60.9142 116.047C64.7299 113.505 68.5076 111.225 72.2956 109.158C76.0733 107.093 79.8613 105.236 83.7048 103.529C87.375 101.901 91.0764 100.276 94.8298 98.9391C98.6109 97.5951 102.479 96.5213 106.482 95.9948C110.997 95.4024 115.687 95.4752 120.355 95.9186C125.023 96.3619 129.657 97.1759 134.069 98.0592C138.768 98.9979 142.48 101.021 145.381 103.972C148.271 106.909 150.347 110.765 151.782 115.375C152.271 116.948 152.701 118.555 153.064 120.176C153.439 121.842 153.751 123.526 153.997 125.195C154.458 128.358 155.276 131.164 156.409 133.633C157.546 136.103 159.001 138.251 160.745 140.111C162.401 141.881 164.325 143.398 166.48 144.687C168.639 145.975 171.034 147.042 173.634 147.911C176.527 148.874 179.439 149.571 182.364 150.063C185.285 150.554 188.224 150.845 191.17 151.005C196.449 151.292 201.748 151.164 207.047 151.032C208.901 150.987 210.758 150.942 212.627 150.915L213.171 150.877C214.734 150.589 215.351 149.969 215.406 149.214C215.465 148.383 214.931 147.347 214.217 146.36C213.697 145.639 213.063 144.984 212.429 144.337L211.677 143.554C210.363 142.144 209.067 140.724 207.788 139.29C206.503 137.842 205.217 136.366 203.934 134.849C202.541 133.197 201.134 131.479 199.713 129.678C198.296 127.88 196.871 126.013 195.433 124.052L194.743 123.117L195.849 123.477C197.277 123.938 198.646 124.43 199.928 124.89C202.437 125.791 204.631 126.574 206.863 126.979C209.137 127.388 211.046 128.105 212.651 129.089C214.259 130.072 215.562 131.323 216.616 132.795C217.69 134.295 218.508 136.03 219.135 137.946C219.756 139.844 220.189 141.926 220.501 144.139C220.809 146.335 220.889 148.549 220.969 150.762C221.059 153.339 221.156 155.92 221.61 158.442C222.844 165.207 224.351 170.295 227.176 173.704C229.973 177.081 234.107 178.834 240.605 178.965C241.704 178.989 242.796 178.965 243.877 178.903C244.958 178.84 246.029 178.737 247.079 178.598C257.22 177.264 266.474 172.56 275.682 167.881L277.564 166.925C278.105 166.655 278.593 166.256 278.891 165.747C279.134 165.328 279.248 164.819 279.158 164.219C279.047 163.468 278.69 162.979 278.222 162.647C277.727 162.297 277.089 162.103 276.458 161.964C275.45 161.746 274.476 161.511 273.502 161.282C270.639 160.6 267.773 159.917 264.897 159.668C258.998 159.152 253.671 157.593 248.771 155.213C243.88 152.837 239.413 149.633 235.22 145.823C233.13 143.925 231.102 141.864 229.116 139.671C227.131 137.478 225.2 135.168 223.311 132.767L222.698 131.995L223.668 132.172C224.663 132.348 225.588 132.497 226.462 132.639C228.274 132.934 229.879 133.197 231.463 133.606C233.043 134.014 234.644 134.243 236.194 134.143C237.729 134.042 239.223 133.616 240.616 132.722C242.841 131.295 245.01 130.866 247.194 131.049C249.353 131.229 251.512 132.012 253.747 133.024C259.878 135.795 264.904 140.26 269.891 144.697C271.017 145.698 272.147 146.699 273.253 147.652C275.197 149.328 277.148 150.454 279.141 151.084C281.13 151.711 283.168 151.857 285.289 151.576C285.812 151.507 286.339 151.413 286.869 151.296C287.407 151.178 287.951 151.032 288.491 150.866C294.754 148.958 300.961 146.817 307.134 144.555C313.285 142.297 319.42 139.906 325.544 137.489L325.703 137.426C326.822 136.986 327.99 136.529 327.713 135.043C327.436 133.592 326.095 133.46 324.902 133.342L324.781 133.332C317.652 132.636 309.83 130.395 301.838 128.105C294.491 126.002 286.994 123.855 279.799 122.84C276.781 122.417 273.759 122.251 270.736 122.254C267.718 122.254 264.671 122.428 261.611 122.681L260.471 122.774L261.334 122.026C263.663 120.003 266.179 118.52 268.813 117.388C271.433 116.258 274.174 115.476 276.968 114.838C277.588 114.696 278.209 114.568 278.829 114.461C279.439 114.35 280.056 114.256 280.676 114.173C285.594 113.529 290.463 113.785 295.291 114.537C300.109 115.285 304.888 116.529 309.653 117.845C315.434 119.445 321.218 121.042 327.048 122.556C332.856 124.059 338.686 125.472 344.546 126.706C345.17 126.834 345.776 126.917 346.359 126.948C346.941 126.979 347.499 126.958 348.033 126.889C349.111 126.747 350.109 126.397 351.024 125.843C351.945 125.282 352.805 124.506 353.599 123.508C357.401 118.739 361.14 114.038 364.689 109.542C368.352 104.907 372.022 100.231 375.693 95.496C375.904 95.2223 376.161 94.914 376.424 94.6023C377.751 93.0331 379.259 91.2492 377.914 89.1986C376.715 87.3697 374.902 88.2426 373.253 89.0358C372.844 89.2333 372.438 89.4272 372.047 89.5831C368.848 90.8509 365.6 91.845 362.322 92.6348C359.047 93.4211 355.747 94.003 352.434 94.4395C348.93 94.9002 345.409 95.2015 341.881 95.4232C338.374 95.6414 334.818 95.7835 331.255 95.9186C328.694 96.0155 326.112 96.019 323.53 96.0225C318.709 96.0259 313.878 96.0329 309.116 96.6598C307.646 96.8538 306.18 97.1067 304.725 97.4392C303.273 97.7683 301.828 98.177 300.393 98.6793L280.68 105.579L282.586 103.695C282.925 103.352 283.158 103.117 283.424 102.895C292.668 95.1842 302.195 87.9412 312.006 81.1728C321.821 74.3974 331.927 68.0897 342.311 62.2496L342.384 62.2115C343.181 61.7612 344.082 61.2589 344.983 61.1412L345.26 61.1169H345.52L346.21 61.1585C352.982 61.5638 359.924 61.9794 365.458 67.0055C367.115 68.5088 368.744 69.5445 370.348 70.1542C371.939 70.7534 373.513 70.9336 375.072 70.7292C376.209 70.5802 377.349 70.2235 378.483 69.6762C379.626 69.1254 380.77 68.3737 381.914 67.442C386.076 64.0577 390.474 61.0442 394.869 58.0341C398.362 55.644 401.855 53.2539 405.228 50.6733C405.505 50.462 405.817 50.2784 406.125 50.1018C407.016 49.5822 407.9 49.0661 407.425 47.7359C406.947 46.3885 405.654 46.3538 404.399 46.3227L403.9 46.3088C398.036 46.0698 392.207 45.7927 386.374 45.5156L378.923 45.1623L379.883 44.5318C381.851 43.2363 383.816 41.9963 385.816 40.9294C387.826 39.8521 389.874 38.9446 392.006 38.328C403.62 34.9403 410.301 25.5151 417.015 16.0483L418.137 14.4688C418.706 13.6652 418.99 12.8789 418.997 12.2276C419.004 11.8466 418.914 11.5072 418.737 11.2508C418.564 11.0049 418.3 10.8178 417.947 10.7209C417.42 10.5788 416.703 10.6308 415.809 10.946L414.765 11.3236C412.932 11.9886 411.088 12.6572 409.189 13.059C400.986 14.7979 393.534 17.8357 386.797 22.1344C380.053 26.4365 374.015 32.0064 368.633 38.8095C366.193 41.8958 363.549 44.7812 360.658 47.348C357.761 49.9216 354.614 52.1905 351.173 54.0367C343.777 58.0029 336.485 62.1457 329.325 66.5102C322.164 70.8781 315.122 75.4747 308.225 80.3484L307.789 80.6879C307.29 81.0862 306.773 81.4984 306.077 81.5919C305.941 81.6058 305.803 81.6127 305.664 81.6023C305.525 81.5954 305.376 81.5677 305.227 81.5296L304.787 81.4153L304.981 81.01C311.743 66.7873 321.069 61.9413 329.876 57.3725C338.637 52.8209 346.879 48.543 351.443 35.3837C353.353 29.8865 355.487 24.5037 357.747 19.1935C360.003 13.8903 362.398 8.6356 364.821 3.39474L365.139 2.76085C365.611 1.86024 366.117 0.890355 365.399 0.0243835C318.837 9.84103 313.504 32.2835 308.582 52.9906C307.556 57.3066 306.548 61.5464 305.182 65.6165L305.179 65.6338C304.025 68.5608 302.94 71.519 301.977 74.5291C301.017 77.5288 300.174 80.5839 299.505 83.7084C299.266 84.8272 298.889 85.8525 298.341 86.7739C297.793 87.6988 297.069 88.5197 296.144 89.2194C288.665 94.8725 281.452 100.913 274.244 106.948C271.357 109.362 268.473 111.776 265.41 114.298C261.819 117.256 258.125 120.069 254.122 122.466C250.101 124.87 245.769 126.858 240.914 128.164L240.016 128.406L240.498 127.61C242.432 124.423 244.456 121.576 246.629 119.019C248.805 116.452 251.141 114.17 253.678 112.116C256.17 110.1 258.762 108.16 261.355 106.224C264.938 103.539 268.525 100.858 271.901 97.9207C275.897 94.4464 279.404 90.605 281.858 86.1539C284.305 81.7132 285.708 76.6455 285.504 70.698L285.372 68.0343C285.06 63.1086 284.381 58.2107 283.702 53.3128C282.867 47.2925 282.031 41.2689 281.868 35.1551C281.848 34.3619 281.705 33.7557 281.48 33.3192C281.269 32.9209 280.985 32.6646 280.655 32.5468C280.319 32.4256 279.917 32.436 279.484 32.5641C278.916 32.7373 278.306 33.1079 277.713 33.6552C274.732 36.416 271.773 39.2252 268.924 42.1764C266.096 45.1138 263.386 48.1828 260.883 51.4804C258.721 54.3346 257.009 57.3413 255.862 60.5315C254.718 63.7183 254.136 67.099 254.219 70.7153C254.33 75.4886 253.775 80.0297 252.552 84.3319C251.328 88.6375 249.433 92.7145 246.861 96.5559C243.822 101.097 241.153 105.818 239.07 110.81C236.987 115.798 235.486 121.059 234.783 126.688C234.61 128.081 234.232 129.037 233.549 129.567C232.853 130.111 231.886 130.194 230.548 129.837C229.061 129.442 227.553 129.113 226.049 128.787C224.226 128.392 222.4 127.994 220.591 127.475C213.469 125.417 206.423 123.134 199.55 120.374C192.667 117.613 185.937 114.374 179.446 110.411C176.056 108.344 172.441 106.691 168.761 105.008C167.031 104.218 165.285 103.421 163.604 102.6L162.89 102.254L163.611 101.925C164.869 101.353 166.13 100.903 167.385 100.557C168.643 100.21 169.901 99.9609 171.152 99.7981C175.834 99.1815 180.478 99.6803 185.046 100.172L185.386 100.21C194.646 101.198 203.851 102.542 213.053 103.885C216.522 104.388 219.984 104.893 223.336 105.365C224.136 105.479 224.923 105.548 225.692 105.562C226.465 105.576 227.228 105.538 227.973 105.437C228.954 105.309 229.914 105.074 230.849 104.72C231.782 104.37 232.693 103.896 233.577 103.283C237.247 100.733 240.314 97.4357 243.381 94.1416C244.944 92.4651 246.508 90.7851 248.157 89.1952C248.552 88.8141 248.892 88.343 248.986 87.8339C249.051 87.4494 248.979 87.0268 248.67 86.5903C247.804 85.3606 246.095 85.8629 244.522 86.3236C243.88 86.5107 243.257 86.6942 242.685 86.7704C241.486 86.9298 240.28 86.9991 239.063 87.0649L238.852 87.0753C232.61 87.4147 226.535 86.2959 220.449 85.1771C219.173 84.945 217.894 84.7094 216.584 84.4808C213.42 83.9335 210.28 83.5802 207.178 83.4694C204.08 83.355 201.006 83.4763 197.984 83.8746C194.934 84.273 191.922 84.9588 188.966 85.9634C186.006 86.9679 183.099 88.298 180.257 89.9884C177.082 91.8727 173.727 93.7987 170.244 95.3782C166.744 96.9647 163.101 98.2013 159.372 98.6897C156.551 99.0603 153.56 98.9841 150.638 98.3363C147.984 97.7475 145.377 96.6806 143.003 95.0526L142.421 94.6542L143.076 94.3944C148.507 92.2538 152.836 88.4227 157.154 84.5986C159.324 82.6796 161.497 80.7571 163.812 79.0425C164.231 78.7342 164.616 78.3774 164.841 77.9583C165.025 77.6154 165.104 77.2205 165.011 76.7598C127.799 68.6682 121.873 74.1065 112.145 83.0398C108.883 86.0326 105.196 89.4203 99.7893 92.8322C98.8085 93.4523 97.8103 94.0377 96.7845 94.5642C95.7551 95.0907 94.6877 95.5687 93.5752 95.974C88.7405 97.7336 84.0202 99.7843 79.3969 102.074C74.7771 104.36 70.2543 106.882 65.8251 109.577C62.4217 111.648 59.0773 113.747 55.5804 115.943L49.8134 119.56L50.0179 118.68C50.9363 114.71 52.028 110.941 53.3831 107.422C54.7382 103.903 56.3567 100.64 58.3218 97.699C60.1794 94.9314 62.349 92.4374 64.9032 90.2759C67.4575 88.111 70.4033 86.2751 73.8067 84.8133C78.0002 83.0121 82.2596 81.4326 86.5779 80.047C90.8962 78.6615 95.2699 77.4664 99.6922 76.4203C100.708 76.1813 101.768 75.9874 102.829 75.7899C107.012 75.0209 111.268 74.2381 114.141 70.3204C118.203 64.7748 122.167 59.1702 126.129 53.5691L127.609 51.4769C128.215 50.6179 128.558 49.8143 128.648 49.1284C128.714 48.6227 128.645 48.1793 128.44 47.8329C128.239 47.49 127.896 47.2233 127.422 47.0639C126.843 46.87 126.063 46.8249 125.099 46.9808C123.464 47.2856 121.869 47.6112 120.282 47.9403C117.104 48.5915 113.94 49.2427 110.682 49.6584C104.471 50.4759 98.5139 51.9896 92.7365 54.0714C86.9522 56.1566 81.3377 58.8169 75.8272 61.924C70.5038 64.9237 66.2722 68.6786 62.9901 73.2163C59.7011 77.7609 57.3583 83.0987 55.8161 89.2644C54.0624 96.2753 51.9518 103.193 49.8411 110.107C48.9123 113.151 47.9835 116.203 47.0443 119.4C46.8121 120.19 46.5556 120.956 46.1779 121.652C45.7862 122.365 45.2698 122.996 44.5282 123.484C37.4997 128.112 30.6791 133.079 23.9972 138.251C17.3049 143.433 10.7616 148.809 4.28757 154.257C3.78851 154.676 3.11269 155.023 2.42647 155.373C2.05218 155.563 1.67095 155.761 1.32784 155.962C0.312379 156.564 -0.408494 157.274 0.260393 158.404C0.423282 158.681 0.606966 158.861 0.797581 158.954C0.977799 159.048 1.18228 159.072 1.39715 159.041C2.28091 158.927 3.38995 157.984 4.36728 157.157C4.76238 156.821 5.14014 156.502 5.48671 156.253C9.9783 152.99 14.307 149.47 18.6357 145.958C24.2536 141.396 29.8716 136.834 35.8708 132.799C37.0838 131.981 38.3003 131.281 39.5756 130.741C40.858 130.197 42.1992 129.809 43.6479 129.619C48.1707 129.026 52.6692 129.324 57.0499 130.253C61.4271 131.181 65.6934 132.736 69.7656 134.652C76.652 137.894 83.1295 141.94 89.6104 145.986ZM248.785 158.954C255.577 161.729 262.928 163.205 270.511 164.112L272.008 164.292L270.601 164.833C270.071 165.037 269.586 165.207 269.128 165.338C268.654 165.473 268.186 165.574 267.704 165.636C266.588 165.782 265.385 165.733 263.725 165.463C262.093 165.2 260.003 164.729 257.085 164.029C256.842 163.97 256.596 163.887 256.347 163.8C255.882 163.644 255.397 163.478 255.054 163.523C254.933 163.541 254.825 163.586 254.742 163.672C254.638 163.78 254.555 163.953 254.499 164.216C254.344 164.961 255.258 165.175 256.031 165.359C256.267 165.414 256.496 165.47 256.683 165.529C258.301 166.048 259.965 166.492 261.843 166.991L265.32 167.929L264.37 168.355C261.306 169.734 258.281 170.957 255.255 171.93C252.226 172.907 249.193 173.641 246.119 174.046C244.903 174.206 243.683 174.313 242.456 174.369C241.226 174.421 239.985 174.417 238.734 174.355C235.802 174.202 233.338 173.312 231.345 171.691C229.359 170.073 227.851 167.735 226.826 164.68C225.443 160.544 224.978 156.311 224.49 151.812C224.334 150.385 224.174 148.926 223.98 147.433L223.706 145.48L223.197 142.387L224.115 143.582C224.511 144.094 224.874 144.597 225.218 145.088C225.547 145.563 225.89 146.072 226.23 146.599L227.432 148.469C229.664 151.985 231.723 155.231 235.171 157.06C237.587 158.338 240.006 159.592 242.577 160.617C244.924 161.556 247.405 162.311 250.147 162.733C248.871 160.859 247.242 160.406 245.735 159.987C245.208 159.841 244.691 159.696 244.213 159.509C240.096 157.867 237.008 156.253 234.558 154.24C232.156 152.269 230.371 149.921 228.836 146.796L228.493 146.086L228.07 145.133C227.869 144.666 227.661 144.16 227.449 143.613L226.507 141.178L228.098 143.253C228.472 143.744 228.85 144.215 229.217 144.662C229.591 145.116 229.976 145.566 230.364 146.006C235.76 152.117 242.002 156.187 248.785 158.954ZM314.287 134.804L318.418 136.058L317.538 136.47C315.756 137.302 313.978 137.953 312.214 138.452C310.45 138.947 308.69 139.297 306.939 139.529C303.796 139.941 300.673 139.976 297.572 139.816C294.477 139.657 291.403 139.304 288.342 138.95L287.926 138.902C284.735 138.531 281.553 138.164 278.392 138.015C282.787 140.464 287.504 140.675 292.272 140.883C295.187 141.011 298.126 141.143 301.044 141.777L302.174 142.023L301.117 142.484C297.423 144.098 293.576 145.113 289.736 146.121C288.474 146.45 287.209 146.782 285.944 147.139C285.674 147.215 285.403 147.285 285.126 147.34C284.856 147.395 284.586 147.444 284.319 147.478C282.915 147.662 281.553 147.555 280.236 147.146C278.926 146.737 277.651 146.031 276.413 145.012C275.176 143.997 273.866 142.944 272.566 141.895C268.539 138.652 264.526 135.414 260.769 131.794L259.656 130.727L272.303 134.51L272.518 133.807C269.714 131.694 266.418 130.81 263.129 129.937C261.32 129.452 259.511 128.971 257.771 128.282L256.828 127.908L257.788 127.578L258.963 127.201L260.163 126.868C260.863 126.685 261.57 126.525 262.284 126.387C262.994 126.252 263.725 126.134 264.474 126.037C265.236 125.937 266.002 125.857 266.768 125.798C267.534 125.743 268.331 125.701 269.153 125.684C274.466 125.556 280.458 126.266 287.382 127.675C294.3 129.089 302.143 131.198 311.182 133.876L314.287 134.804ZM351.727 120.2C350.421 121.721 348.816 122.587 346.861 122.843C346.178 122.933 345.451 122.947 344.685 122.892C343.922 122.833 343.111 122.701 342.259 122.5L339.659 121.891C330.441 119.736 321.211 117.575 312.038 115.129C308.17 114.097 304.285 113.224 300.42 112.507C296.497 111.78 292.581 111.208 288.703 110.799L286.755 110.595L288.64 110.069C289.978 109.694 291.316 109.372 292.654 109.102C294.002 108.828 295.34 108.607 296.671 108.434C302.763 107.63 308.859 107.782 314.942 108.583C321.017 109.383 327.082 110.831 333.13 112.618C335.955 113.449 338.786 114.014 341.625 114.27C344.463 114.53 347.322 114.485 350.202 114.107C350.888 114.017 351.578 113.907 352.268 113.778C352.961 113.65 353.654 113.498 354.34 113.332L354.957 113.183L354.787 113.796C354.014 116.588 353.016 118.707 351.727 120.2ZM202.195 145.334C203.189 145.681 204.25 146.048 205.355 146.457L207.168 147.132L205.234 147.184C199.734 147.333 194.487 147.458 189.389 147.097C184.27 146.734 179.293 145.875 174.351 144.06C173.793 143.855 167.212 140.291 162.263 134.236C159.649 131.032 157.473 127.125 156.853 122.639C156.502 120.131 155.996 117.672 155.328 115.264C154.659 112.853 153.827 110.477 152.836 108.132L152.191 106.605L153.432 107.71C155.761 109.788 157.733 112.161 159.49 114.693C161.244 117.218 162.789 119.909 164.266 122.642C165.621 125.147 167.149 127.44 168.948 129.421C170.74 131.396 172.809 133.076 175.245 134.364L175.678 134.61C176.222 134.936 176.808 135.282 177.65 135.171C177.872 135.144 178.122 135.081 178.392 134.981L178.697 134.86C171.509 130.932 167.572 124.433 163.482 117.679C161.545 114.478 159.573 111.215 157.206 108.163L156.343 107.048L157.646 107.588C160.315 108.693 173.176 117.648 184.887 126.349C194.712 133.651 203.751 140.8 205.3 143.02L205.764 143.686L204.957 143.606C202.912 143.401 201.203 142.698 199.561 142.026C198.698 141.673 197.852 141.323 196.979 141.063C196.438 140.904 195.825 140.606 195.208 140.308C194.237 139.841 193.243 139.363 192.622 139.442C192.498 139.46 192.387 139.505 192.3 139.581C192.206 139.66 192.127 139.792 192.071 139.979C191.596 141.569 193.229 142.044 194.764 142.49C195.388 142.671 196.005 142.851 196.5 143.097C198.237 143.959 200.074 144.597 202.195 145.334ZM106.374 145.712C105.241 146.221 104.087 146.561 102.915 146.713C101.56 146.893 100.181 146.824 98.7807 146.498C97.3875 146.173 95.9666 145.587 94.5144 144.735C91.2254 142.809 87.8498 140.946 84.4777 139.089C81.8992 137.669 79.3172 136.249 76.7872 134.801C72.4793 132.338 68.0362 130.422 63.4684 129.033C58.904 127.644 54.1976 126.778 49.3594 126.415L45.4397 126.117L49.3455 125.666C54.9912 125.022 60.6126 124.776 66.1647 125.251C71.7307 125.722 77.2412 126.913 82.6547 129.134C93.1836 133.446 104.028 132.961 114.883 132.473L116.113 132.418L116.539 132.379C117.194 132.293 117.894 132.064 118.723 131.794C119.253 131.621 119.835 131.43 120.549 131.236L121.797 130.893L120.923 131.846C119.752 133.124 118.639 134.427 117.551 135.698C115.032 138.646 112.651 141.427 109.729 143.668C108.62 144.517 107.504 145.203 106.374 145.712ZM368.224 98.8144C363.441 105.074 358.634 111.361 350.095 112.483L349.062 112.594L347.995 112.649C345.659 112.718 343.347 112.559 341.053 112.251C338.772 111.939 336.499 111.471 334.236 110.928C331.158 110.179 328.164 109.386 325.325 108.634L320.393 107.339L321.7 106.961C325.093 105.978 328.645 104.918 332.198 103.858C345.094 100.006 358.09 96.1264 371.492 93.6255L372.525 93.4315L371.849 94.2351C370.605 95.7038 369.413 97.2591 368.224 98.8144ZM184.152 118.184C188.401 121.44 192.148 125.601 195.416 130.758L196.327 132.196L194.899 131.274L192.972 130.055C191.77 129.307 190.709 128.642 189.687 127.883C186.595 125.583 183.65 123.079 180.707 120.574C177.075 117.488 173.44 114.395 169.534 111.693L167.638 110.38L169.852 111.028C175.141 112.569 179.896 114.925 184.152 118.184ZM258.267 99.6907C260.578 96.1645 262.887 92.6383 264.249 88.537C260.253 93.4973 256.728 98.8421 253.155 104.263C248.687 111.035 244.137 117.932 238.502 124.361L237.608 125.379L237.85 124.049C238.543 120.273 239.476 116.924 240.644 113.844C241.811 110.765 243.222 107.945 244.868 105.226C245.835 103.629 246.705 102.237 247.578 100.837C248.836 98.8144 250.101 96.7915 251.29 94.7789C253.307 91.367 254.825 87.7507 255.82 83.9855C256.808 80.2479 257.276 76.3545 257.206 72.3572C257.185 68.4118 257.73 64.8406 258.918 61.5118C260.104 58.1761 261.93 55.0759 264.467 52.0727C265.985 50.2819 267.551 48.5222 269.184 46.8041C270.813 45.0861 272.511 43.4095 274.289 41.7711L275.71 40.4687L274.881 42.2076C271.475 49.3709 271.319 57.0226 271.159 64.702C271.076 68.8933 270.989 73.0985 270.379 77.2448C271.447 75.1941 272.053 73.3271 272.397 71.5155C272.833 69.1739 272.826 66.9051 272.778 64.4353C272.702 60.3549 272.903 56.3679 273.703 52.4295C274.507 48.4807 275.918 44.5873 278.25 40.6973L278.929 39.5612L278.943 40.8878C278.992 46.2291 279.713 51.4942 280.427 56.749C281.102 61.6885 281.775 66.621 281.893 71.6229C282.021 76.9954 280.576 81.4949 278.205 85.4195C275.838 89.3337 272.559 92.6694 269 95.7315C265.046 99.1296 260.755 102.074 256.416 105.049L253.993 106.715L254.77 105.323C255.848 103.387 257.061 101.537 258.267 99.6907ZM292.221 106.812C290.041 107.332 287.881 107.997 285.75 108.853L281.463 110.567L285.417 108.184C289.15 105.933 292.98 104.249 296.875 103.002C300.767 101.752 304.735 100.931 308.745 100.404C317.212 99.2889 325.89 99.4794 334.572 99.6665L338.169 99.7427L336.44 100.425C334.315 101.26 332.163 101.915 330 102.427C327.838 102.936 325.647 103.317 323.44 103.605C319.357 104.145 315.236 104.377 311.116 104.613L310.96 104.62C306.901 104.852 302.843 105.087 298.84 105.614C296.612 105.905 294.4 106.289 292.221 106.812ZM92.7469 124.693C99.0129 126.557 105.293 128.427 111.708 129.674L115.084 130.332L111.646 130.415L108.318 130.519C100.798 130.772 93.2529 131.028 85.8432 128.084C80.9495 126.141 75.9728 124.703 70.8365 123.834C65.7003 122.965 60.3943 122.667 54.8422 122.996L53.2757 123.089L54.6308 122.299C56.1314 121.427 57.6217 120.751 59.1016 120.249C60.5814 119.75 62.0544 119.418 63.5169 119.227C65.4231 118.974 67.3154 118.957 69.2007 119.099C71.0757 119.237 72.961 119.542 74.8533 119.927C80.908 121.167 86.824 122.93 92.7469 124.693ZM232.558 99.521C230.732 100.64 228.76 101.329 226.632 101.606C225.807 101.717 224.951 101.762 224.07 101.752C223.19 101.738 222.289 101.665 221.367 101.537C218.511 101.135 215.732 100.72 212.952 100.311C202.742 98.7936 192.463 97.2695 181.823 96.7049L180.146 96.6183L181.702 95.9844C182.939 95.4821 184.176 95.0838 185.407 94.7685C186.634 94.4568 187.864 94.2282 189.087 94.0654C193.745 93.4523 198.33 93.8194 202.891 94.1832C204.427 94.3044 205.962 94.4256 207.452 94.5088C209.04 94.5988 210.665 94.7512 212.287 94.9002L214.734 95.1184C214.952 95.1357 215.198 95.1877 215.448 95.2396C215.794 95.3089 216.151 95.3817 216.415 95.347C216.536 95.3332 216.636 95.2881 216.706 95.205C216.792 95.0907 216.848 94.8967 216.858 94.5884C216.886 93.6428 215.78 93.5146 214.956 93.4176L214.647 93.383C210.097 92.7872 205.543 92.2503 200.895 92.0217C196.258 91.7965 191.52 91.8797 186.592 92.5274L185.008 92.756L183.407 93.0228L181.411 93.3795L183.147 92.3334C185.656 90.8197 188.141 89.7251 190.612 88.9284C193.076 88.1317 195.53 87.6329 197.98 87.3108C199.225 87.148 200.462 87.0268 201.692 86.9402C202.912 86.8536 204.156 86.7912 205.407 86.7462C210.807 86.5418 216.082 87.4875 221.357 88.4331C225.172 89.1155 228.992 89.8013 232.846 90.0438C233.962 90.1166 235.057 90.165 236.041 90.2066L238.443 90.3175L237.465 90.9513C236.11 91.8242 234.544 92.1776 232.908 92.5413C230.995 92.9708 228.981 93.4211 227.203 94.7789C227.578 94.9417 227.942 95.0457 228.305 95.1045C228.829 95.1877 229.349 95.1773 229.862 95.1115C230.246 95.063 230.638 94.9764 231.026 94.8759C231.435 94.7685 231.823 94.6473 232.208 94.5295L232.25 94.5157C233.047 94.2732 233.84 94.0307 234.641 93.9268C235.095 93.8679 235.559 93.8506 236.024 93.8991C236.492 93.9511 236.966 94.0723 237.441 94.2836L237.874 94.4776L237.587 94.8517C236.051 96.8538 234.377 98.4056 232.558 99.521ZM375.079 67.3796C374.812 67.4524 374.546 67.5078 374.289 67.5424C373.471 67.6498 372.681 67.5667 371.936 67.3207C371.153 67.0609 370.411 66.6245 369.725 66.0495C367.895 64.5081 365.947 63.2403 363.805 62.1595C361.663 61.0823 359.317 60.1851 356.683 59.3954L355.359 58.997L356.7 58.6714C358.298 58.2869 359.885 57.9544 361.459 57.6703C363.036 57.3828 364.606 57.1404 366.162 56.936C372.56 56.0943 378.833 55.8553 385.085 55.6197C387.254 55.5366 389.424 55.4535 391.618 55.3461L392.734 55.2907L390.512 57.1369C385.927 60.961 381.37 64.7609 375.859 67.106C375.599 67.2168 375.336 67.3103 375.079 67.3796ZM147.793 88.7864C144.729 90.553 141.499 91.5056 138.165 91.9455C132.499 92.6937 126.548 91.9524 120.611 91.2181L115.943 90.6431L135.424 86.7046L136.769 86.3652C140.065 85.5685 143.295 84.7822 146.507 83.8123C149.689 82.8528 152.822 81.7132 155.913 80.2098L157.244 79.5621L156.381 80.7641C153.74 84.4462 150.85 87.0233 147.793 88.7864ZM394.758 52.2805C393.52 52.5057 392.28 52.6962 391.039 52.8625C386.662 53.434 382.246 53.6765 377.838 53.9155L377.644 53.9224C373.256 54.1614 368.869 54.4004 364.536 54.972C362.783 55.2041 361.033 55.4881 359.3 55.8518C357.567 56.2086 355.841 56.6485 354.129 57.1854L351.876 57.892L353.8 56.5238C356.635 54.5078 359.539 53.0114 362.499 51.9134C365.451 50.8222 368.463 50.1295 371.513 49.7277C379.276 48.7058 387.275 49.5649 395.274 50.4239L400.518 50.9816L398.449 51.4908C397.225 51.7921 395.991 52.0554 394.758 52.2805ZM143.177 82.9775C141.95 83.1368 141.004 82.7974 140.442 81.5504C138.796 85.0905 130.946 86.6561 123.886 87.5844C122.091 87.82 120.362 88.0174 118.802 88.1906C116.484 88.4539 114.536 88.6721 113.371 88.9146L111.6 89.2818L113.08 88.2426C116.525 85.8248 120.105 83.9682 123.793 82.5895C127.477 81.2109 131.275 80.3068 135.157 79.7976C136.027 79.6833 136.89 79.5863 137.732 79.5136C138.578 79.4409 139.448 79.382 140.335 79.3404C141.905 79.2677 143.489 79.2503 145.086 79.2815C146.691 79.3162 148.296 79.3993 149.904 79.524L151.508 79.6487L150.011 80.2445C149.086 80.6117 148.181 81.0342 147.329 81.4326C145.759 82.1669 144.348 82.8251 143.177 82.9775ZM382.957 38.9446C378.649 40.5934 374.351 42.2387 370.38 44.4175L367.756 45.8585L369.943 43.8183C375.845 38.3142 382.229 33.6726 388.977 29.5367C395.721 25.4008 402.833 21.7672 410.194 18.2791L411.23 17.7906L410.683 18.7986C404.105 30.846 393.489 34.9126 382.957 38.9446ZM337.23 45.0618C335.92 45.7026 335.324 45.9971 333.657 46.9462L332 47.8745C328.898 49.648 325.887 51.5808 323.003 53.725C320.12 55.8795 317.357 58.2453 314.765 60.8814L313.708 61.9586L314.141 60.5142C315.642 55.4812 318.234 51.1063 320.823 46.7349C322.327 44.1993 323.831 41.6568 325.117 38.9965C321.017 42.8276 318.345 47.7948 315.791 52.5438L314.103 55.6751L314.228 53.9363C314.696 47.4242 316.273 41.7573 318.723 36.7762C321.17 31.7986 324.493 27.4999 328.451 23.7139C330.506 21.7499 332.728 19.9279 335.085 18.2167C337.441 16.509 339.94 14.9122 342.543 13.4054C344.91 12.0302 347.281 10.6931 349.651 9.35955L355.338 6.14853L353.574 7.98439C351.855 9.77522 350.088 11.4898 348.334 13.1871C344.134 17.2572 339.996 21.2649 336.71 26.1663C339.296 23.7277 341.961 21.3931 344.629 19.0584C349.967 14.3891 355.314 9.7094 360.007 4.20183L360.308 3.84505L360.589 4.22261C361.192 5.03316 360.707 5.63588 360.27 6.16931C360.159 6.31133 360.048 6.44642 359.996 6.55034C357.737 10.8941 355.633 15.307 353.661 19.7789C351.675 24.2716 349.818 28.8127 348.06 33.3885C347.083 35.9241 345.832 38.1202 344.227 39.9803C342.616 41.8439 340.647 43.3714 338.242 44.563L337.23 45.0618ZM390.162 26.6513C386.201 28.9513 382.298 31.3656 378.472 33.8977L375.7 35.7301L377.994 33.3262C381.37 29.793 385.009 26.7725 388.977 24.4067C392.955 22.0339 397.27 20.3089 401.98 19.3736L404.611 18.8541L402.223 20.0768C398.154 22.1586 394.13 24.3478 390.162 26.6513ZM81.2684 78.4987C75.4078 80.7052 69.7067 83.4486 64.2828 87.1307L63.0109 87.9932L63.7457 86.6423C64.7057 84.8722 66.0608 83.5698 67.4678 82.2154C68.9408 80.7987 70.4761 79.3162 71.651 77.1893C68.2927 78.8416 66.04 81.2317 63.808 83.5975C62.8099 84.6575 61.8118 85.714 60.7027 86.7185L59.8606 87.484L60.0858 86.3686C60.9835 81.9591 62.5396 78.2077 64.7126 74.9932C66.8856 71.7787 69.6824 69.0942 73.0546 66.8219C78.7869 62.9701 84.7237 59.766 90.9066 57.3066C97.0929 54.8438 103.525 53.1257 110.235 52.2424C110.935 52.1489 111.646 52.0658 112.359 51.993C113.094 51.9134 113.812 51.851 114.505 51.7956L116.962 51.6086L104.991 56.3645L105.196 57.1334L105.754 57.0953L106.599 57.0053C109.396 56.6416 112.093 55.6336 114.851 54.6083C117.499 53.6245 120.213 52.6131 123.155 52.1004L124.101 51.9376L123.512 52.6997C122.226 54.3658 120.948 56.0458 119.693 57.6946C116.907 61.3559 114.217 64.8891 111.417 68.2975C108.984 71.2522 105.601 71.8515 102.285 72.4369C101.259 72.617 100.233 72.8006 99.2694 73.0465C93.1801 74.6053 87.1393 76.2853 81.2684 78.4987Z" fill="#2F2F2F"/>
</svg>
